inDegrees=yes
name=IK-live
DataType=double
version=3
OpenSimVersion=4.1
endheader
time	pelvis_tilt	pelvis_list	pelvis_rotation	pelvis_tx	pelvis_ty	pelvis_tz	hip_flexion_r	hip_adduction_r	hip_rotation_r	knee_angle_r	ankle_angle_r	subtalar_angle_r	mtp_angle_r	hip_flexion_l	hip_adduction_l	hip_rotation_l	knee_angle_l	ankle_angle_l	subtalar_angle_l	mtp_angle_l	lumbar_extension	lumbar_bending	lumbar_rotation	neck_flex	neck_latbend	neck_rot	arm_flex_r	arm_add_r	arm_rot_r	elbow_flex_r	pro_sup_r	wrist_flex_r	wrist_dev_r	arm_flex_l	arm_add_l	arm_rot_l	elbow_flex_l	pro_sup_l	wrist_flex_l	wrist_dev_l
15.4893356	-10.91282472361119	-4.717272345153775	-220.0564041555203	0.2341366603171506	0.04326292228651554	-1.326684523481465	-22.57117169827992	-1.591976316804377	-3.241458145969817	5.899560354604904	2.451982624139334	1.987972377786656	0	-24.74788768789517	-3.395140484746916	-11.58000132048591	9.793848132074926	-0.4439473045988533	4.250290820099795	0	-21.37711699760957	1.659277491615732	3.206407148933037	0	0	0	0.7833811182870786	-15.17648862825309	33.30726766404985	7.063686107041419	24.88471077613972	0	0.01721070343632177	5.874073608145052	-13.2299315269171	43.89273347170871	6.879851357419044	33.48529968351955	0	0.01721070343632177
15.6492913	-32.81004101926453	-4.688674188024148	-226.013959377956	0.2341366603171506	0.04326292228651554	-1.326684523481465	-22.57117169827992	-1.591976316804377	-3.241458145969817	5.899560354604904	2.451982624139334	1.987972377786656	0	-24.74788768789517	-3.395140484746916	-11.58000132048591	9.793848132074926	-0.4439473045988533	4.250290820099795	0	-21.37711699760957	1.659277491615732	3.206407148933037	0	0	0	0.7874916040596601	-15.17647062930696	33.30192310135045	7.135742659973256	24.89848969767289	0	0.02350129766471564	5.877815152560012	-13.23011209533158	43.88476761555281	6.953825874359164	33.49207288716141	0	0.02350129766471564
20.6640884	54.7948663383511	67.64678711829735	-178.2584465748222	0.2341366603171506	0.04326292228651554	-1.326684523481465	-22.57117169827992	-1.591976316804377	-3.241458145969817	5.899560354604904	2.451982624139334	1.987972377786656	0	-24.74788768789517	-3.395140484746916	-11.58000132048591	9.793848132074926	-0.4439473045988533	4.250290820099795	0	-21.37711699760957	1.659277491615732	3.206407148933037	0	0	0	0.7870014006058127	-15.1764726795137	33.30248745055099	7.13858310885365	24.89754638268393	0	0.02317359116816525	5.877366604766147	-13.23009152851079	43.88557510499803	6.957049182831126	33.49154267282221	0	0.02317359116816525
20.8250811	56.10213494201312	67.62075407259027	-179.2111714651163	0.2341366603171506	0.04326292228651554	-1.326684523481465	-22.57117169827992	-1.591976316804377	-3.241458145969817	5.899560354604904	2.451982624139334	1.987972377786656	0	-24.74788768789517	-3.395140484746916	-11.58000132048591	9.793848132074926	-0.4439473045988533	4.250290820099795	0	-21.37711699760957	1.659277491615732	3.206407148933037	0	0	0	0.7871894518884104	-15.17647185505435	33.30224215648323	7.142018793950862	24.89818442625994	0	0.02346601056334631	5.877537751837757	-13.23009979963698	43.8852091338792	6.960580473929196	33.49185554904339	0	0.02346601056334631
20.9769973	57.83165449071912	68.75474927208484	-180.1636157177569	0.2341366603171506	0.04326292228651554	-1.326684523481465	-22.57117169827992	-1.591976316804377	-3.241458145969817	5.899560354604904	2.451982624139334	1.987972377786656	0	-24.74788768789517	-3.395140484746916	-11.58000132048591	9.793848132074926	-0.4439473045988533	4.250290820099795	0	-21.37711699760957	1.659277491615732	3.206407148933037	0	0	0	0.7845673342561431	-15.17648332229497	33.3056410813922	7.096822601113732	24.88948437186572	0	0.01950659294918971	5.875150644454454	-13.22998475854281	43.89027076409113	6.9141748169718	33.48757195430786	0	0.01950659294918971
21.1368185	58.82648219995119	67.9995230803011	-174.8454188497173	0.2341366603171506	0.04326292228651554	-1.326684523481465	-22.57117169827992	-1.591976316804377	-3.241458145969817	5.899560354604904	2.451982624139334	1.987972377786656	0	-24.74788768789517	-3.395140484746916	-11.58000132048591	9.793848132074926	-0.4439473045988533	4.250290820099795	0	-21.37711699760957	1.659277491615732	3.206407148933037	0	0	0	0.7849932086981258	-15.17648146046218	33.30508954138467	7.104115150924287	24.89089231484352	0	0.02014656432822301	5.875538364930349	-13.2300034367228	43.88944966513704	6.921664709026247	33.48826568536274	0	0.02014656432822301
21.288735	63.69617562371376	60.60643733612697	-169.1120958225837	0.2341366603171506	0.04326292228651554	-1.326684523481465	-22.57117169827992	-1.591976316804377	-3.241458145969817	5.899560354604904	2.451982624139334	1.987972377786656	0	-24.74788768789517	-3.395140484746916	-11.58000132048591	9.793848132074926	-0.4439473045988533	4.250290820099795	0	-21.37711699760957	1.659277491615732	3.206407148933037	0	0	0	0.7846239742960923	-15.1764831268681	33.30560784540332	7.090253594288893	24.88927986114327	0	0.01935613554836099	5.875203521860087	-13.22998671842754	43.89024035098597	6.90718346728184	33.48751101843744	0	0.01935613554836099
